<svg xmlns="http://www.w3.org/2000/svg" xmlns:xlink="http://www.w3.org/1999/xlink" width="3100" zoomAndPan="magnify" viewBox="0 0 2325 2324.999891" height="3100" preserveAspectRatio="xMidYMid meet" version="1.0"><defs><clipPath id="3d11b24f7c"><path d="M 0 370.546875 L 2325 370.546875 L 2325 1954.546875 L 0 1954.546875 Z M 0 370.546875 " clip-rule="nonzero"/></clipPath><clipPath id="51d4932e52"><path d="M 135 135 L 2093 135 L 2093 2093 L 135 2093 Z M 135 135 " clip-rule="nonzero"/></clipPath><clipPath id="955bb598cf"><path d="M 135.414062 1934.777344 L 1935.105469 135.085938 L 2093.34375 293.320312 L 293.652344 2093.011719 Z M 135.414062 1934.777344 " clip-rule="nonzero"/></clipPath><clipPath id="ce01e45d0c"><path d="M 135.414062 1934.777344 L 1934.777344 135.414062 L 2092.5 293.136719 L 293.140625 2092.5 Z M 135.414062 1934.777344 " clip-rule="nonzero"/></clipPath></defs><g clip-path="url(#3d11b24f7c)"><path fill="#000000" d="M 1162.5 370.546875 C 634.53125 370.546875 183.644531 698.960938 0.96875 1162.546875 C 183.644531 1626.128906 634.53125 1954.546875 1162.5 1954.546875 C 1690.46875 1954.546875 2141.355469 1626.128906 2324.03125 1162.546875 C 2141.355469 698.960938 1690.996094 370.546875 1162.5 370.546875 Z M 1162.5 1690.546875 C 871.0625 1690.546875 634.53125 1454.003906 634.53125 1162.546875 C 634.53125 871.089844 871.0625 634.546875 1162.5 634.546875 C 1453.9375 634.546875 1690.46875 871.089844 1690.46875 1162.546875 C 1690.46875 1454.003906 1453.9375 1690.546875 1162.5 1690.546875 Z M 1162.5 845.746094 C 987.742188 845.746094 845.71875 987.777344 845.71875 1162.546875 C 845.71875 1337.316406 987.742188 1479.347656 1162.5 1479.347656 C 1337.257812 1479.347656 1479.28125 1337.316406 1479.28125 1162.546875 C 1479.28125 987.777344 1337.257812 845.746094 1162.5 845.746094 Z M 1162.5 845.746094 " fill-opacity="1" fill-rule="nonzero"/></g><g clip-path="url(#51d4932e52)"><g clip-path="url(#955bb598cf)"><g clip-path="url(#ce01e45d0c)"><path fill="#000000" d="M 135.414062 1934.777344 L 1934.59375 135.597656 L 2092.316406 293.320312 L 293.136719 2092.5 Z M 135.414062 1934.777344 " fill-opacity="1" fill-rule="nonzero"/></g></g></g></svg>